<?xml version="1.0" encoding="UTF-8"?>
<svg
   xmlns:dc="http://purl.org/dc/elements/1.1/"
   xmlns:cc="http://creativecommons.org/ns#"
   xmlns:rdf="http://www.w3.org/1999/02/22-rdf-syntax-ns#"
   xmlns:svg="http://www.w3.org/2000/svg"
   xmlns="http://www.w3.org/2000/svg"
   xmlns:sodipodi="http://sodipodi.sourceforge.net/DTD/sodipodi-0.dtd"
   xmlns:inkscape="http://www.inkscape.org/namespaces/inkscape"
   viewBox="0 0 24 24"
   id="svg3165"
   version="1.1"
   inkscape:version="0.48.5 r10040"
   width="100%"
   height="100%"
   sodipodi:docname="menu.svg">
  <metadata
     id="metadata3173">
    <rdf:RDF>
      <cc:Work
         rdf:about="">
        <dc:format>image/svg+xml</dc:format>
        <dc:type
           rdf:resource="http://purl.org/dc/dcmitype/StillImage" />
      </cc:Work>
    </rdf:RDF>
  </metadata>
  <defs
     id="defs3171" />
  <sodipodi:namedview
     pagecolor="#ffffff"
     bordercolor="#666666"
     borderopacity="1"
     objecttolerance="10"
     gridtolerance="10"
     guidetolerance="10"
     inkscape:pageopacity="0"
     inkscape:pageshadow="2"
     inkscape:window-width="648"
     inkscape:window-height="480"
     id="namedview3169"
     showgrid="false"
     inkscape:zoom="9.8333333"
     inkscape:cx="24.966102"
     inkscape:cy="12"
     inkscape:window-x="0"
     inkscape:window-y="0"
     inkscape:window-maximized="0"
     inkscape:current-layer="svg3165" />
  <g
     id="menu"
     transform="translate(487,-489.5)">
    <path
       id="lines"
       d="m -481,505 h 12 c 0.6,0 1,0.4 1,1 v 1 c 0,0.6 -0.4,1 -1,1 h -12 c -0.6,0 -1,-0.4 -1,-1 v -1 c 0,-0.6 0.4,-1 1,-1 z m -1,-4 v 1 c 0,0.6 0.4,1 1,1 h 12 c 0.6,0 1,-0.4 1,-1 v -1 c 0,-0.6 -0.4,-1 -1,-1 h -12 c -0.6,0 -1,0.4 -1,1 z m 0,-5 v 1 c 0,0.6 0.4,1 1,1 h 12 c 0.6,0 1,-0.4 1,-1 v -1 c 0,-0.6 -0.4,-1 -1,-1 h -12 c -0.6,0 -1,0.4 -1,1 z"
       inkscape:connector-curvature="0" />
  </g>
</svg>
