<?xml version="1.0" encoding="UTF-8"?>
<svg xmlns="http://www.w3.org/2000/svg" width="20" height="20" viewBox="0 0 20 20">
	<title>
		article not found
	</title>
	<path d="M5 1c-1.1 0-2 .9-2 2v14c0 1.1.9 2 2 2h10c1.1 0 2-.9 2-2V3c0-1.1-.9-2-2-2H5zm4.9805 4.2012c.385 0 .74313.059828 1.0781.17383.33.114.62314.282.86914.5s.44294.48745.58594.81445c.143.323.21484.69161.21484 1.0996-.009999.306-.041469.5642-.10547.7832h.003906a2.144 2.144 0 0 1-.25.5625c-.104.16-.22633.30083-.36133.42383l-.40234.36328-.4375.39648c-.134.127-.25052.27274-.35352.42774-.103.16-.17942.34569-.23242.55469-.054.215-.080078.47516-.080078.78516h-1.3594c0-.378.016641-.69608.056641-.95508.036-.26.098594-.48945.18359-.68945.085-.196.18659-.36953.30859-.51953.12-.15.26759-.29445.43359-.43945l.38477-.33203c.12-.105.23412-.21384.32812-.33984.098-.124.16856-.26492.22656-.41992a1.67 1.67 0 0 0 .080078-.55078c0-.256-.043813-.48016-.13281-.66016a1.397 1.397 0 0 0-.32226-.44141 1.35 1.35 0 0 0-.40234-.24609 1.17 1.17 0 0 0-.375-.078125c-.52 0-.90539.17448-1.1504.52148-.247.345-.37305.80867-.37305 1.3887h-1.4336c0-.468.066078-.89425.20508-1.2812a2.641 2.641 0 0 1 1.5605-1.6191c.37-.15.78995-.22266 1.252-.22266zm-1.0234 7.7715h1.6875v1.5996H8.9571v-1.5996z"/>
</svg>
