<?xml version="1.0" encoding="UTF-8"?>
<svg xmlns="http://www.w3.org/2000/svg" width="20" height="20" viewBox="0 0 20 20">
	<title>
		help
	</title>
	<path d="M10.06 1C13 1 15 2.89 15 5.53a4.59 4.59 0 0 1-2.29 4.08c-1.42.92-1.82 1.53-1.82 2.71V13H8.38v-.81a3.84 3.84 0 0 1 2-3.84c1.34-.9 1.79-1.53 1.79-2.71A2.1 2.1 0 0 0 10.09 3.5H9.92A2.3 2.3 0 0 0 7.54 5.72v.17H5A4.71 4.71 0 0 1 9.51 1 5 5 0 0 1 10.06 1ZM8 17a1.89 1.89 0 0 1 1.77-2H10a1.87 1.87 0 0 1 2 1.73A1.22 1.22 0 0 1 12 17a1.87 1.87 0 0 1-1.73 2A1.22 1.22 0 0 1 10 19a1.88 1.88 0 0 1-2-1.75A1 1 0 0 1 8 17Z"/>
</svg>
