<?xml version="1.0" encoding="UTF-8"?>
<svg xmlns="http://www.w3.org/2000/svg" width="20" height="20" viewBox="0 0 20 20">
	<title>
		image layout frame
	</title>
	<path d="M20-.5h-.5V0H20V-.5Zm-2.5,0H17V0h.5V-.5ZM15-.5h-.5V0H15V-.5Zm-2.5,0H12V0h.5V-.5ZM10-.5H9.5V0H10V-.5ZM7.5-.5H7V0h.5V-.5ZM5-.5H4.5V0H5V-.5ZM2.5-.5H2V0h.5V-.5ZM0,0H-.5V.5H0V0ZM0,2.5H-.5V3H0V2.5ZM0,5H-.5v.5H0V5ZM0,7.5H-.5V8H0V7.5ZM0,10H-.5v.5H0V10Zm0,2.5H-.5V13H0v-.5ZM0,15H-.5v.5H0V15Zm0,2.5H-.5V18H0v-.5ZM.5,20H0v.5H.5V20ZM3,20H2.5v.5H3V20Zm2.5,0H5v.5h.5V20ZM8,20H7.5v.5H8V20Zm2.5,0H10v.5h.5V20ZM13,20h-.5v.5H13V20Zm2.5,0H15v.5h.5V20ZM18,20h-.5v.5H18V20Zm2.5-.5H20V20h.5v-.5Zm0-2.5H20v.5h.5V17Zm0-2.5H20V15h.5v-.5Zm0-2.5H20v.5h.5V12Zm0-2.5H20V10h.5V9.5Zm0-2.5H20v.5h.5V7Zm0-2.5H20V5h.5V4.5Zm0-2.5H20v.5h.5V2Z"/>
	<path d="M17,2H3A2,2,0,0,0,1,4V16a2,2,0,0,0,2,2H17a2,2,0,0,0,2-2V4A2,2,0,0,0,17,2Zm0,15H3a1,1,0,0,1-1-1V4A1,1,0,0,1,3,3H17a1,1,0,0,1,1,1V16A1,1,0,0,1,17,17Z"/>
	<path d="M15.25,4H4.75A1.8,1.8,0,0,0,3,5.85v8.31A1.8,1.8,0,0,0,4.75,16h10.5A1.8,1.8,0,0,0,17,14.15V5.85A1.8,1.8,0,0,0,15.25,4ZM5,13l2.5-3,2,2L12,9l3,4Z"/>
	<rect x="3" y="4" width="14" height="2" transform="translate(20 10) rotate(180)"/>
	<rect x="3" y="14" width="14" height="2" transform="translate(20 30) rotate(180)"/>
</svg>
