<?xml version="1.0" encoding="UTF-8"?>
<svg xmlns="http://www.w3.org/2000/svg" width="20" height="20" viewBox="0 0 20 20">
	<title>
		italic
	</title>
	<path d="M10.7 19.25c-2.06 0-3.65-.62-4.78-1.86-1.13-1.25-1.69-2.93-1.69-5.07a14.4 14.4 0 0 1 1.51-6.4 11.22 11.22 0 0 1 1.92-2.65 8.2 8.2 0 0 1 2.72-1.84 10.46 10.46 0 0 1 6.07-.4 8.04 8.04 0 0 1 2.15.8l-1.1 2.24a9.03 9.03 0 0 0-1.58-.68 6.47 6.47 0 0 0-2-.28 5.8 5.8 0 0 0-3.07.8 6.77 6.77 0 0 0-2.14 2.17 10.8 10.8 0 0 0-1.26 2.95 13.16 13.16 0 0 0-.4 3.2c0 1.48.35 2.63 1.05 3.45.73.83 1.76 1.24 3.1 1.24a9.27 9.27 0 0 0 2.04-.23 16.8 16.8 0 0 0 2-.58v2.35a14.78 14.78 0 0 1-2 .55c-.72.17-1.57.25-2.54.25z"/>
</svg>
