<svg xmlns="http://www.w3.org/2000/svg" width="20" height="20" viewBox="0 0 20 20">
	<title>
      palette
    </title>
	<path d="M13.5 9a1.5 1.5 0 1 0 0 3 1.5 1.5 0 0 0 0-3m-7-2a1.5 1.5 0 1 0 0 3 1.5 1.5 0 0 0 0-3m4-2a1.5 1.5 0 1 0 0 3 1.5 1.5 0 0 0 0-3"/>
	<path d="M18.544 7.172A9.001 9.001 0 0 0 1.285 12.25l.968.75H8.25a.75.75 0 0 1 .75.75v4.21l1.06 1c.648-.04 1.938-.142 2.768-.416a9 9 0 0 0 5.716-11.372M7.8 3.354a7 7 0 0 1 4.4 13.291c-.3.1-.745.17-1.2.224v-3.12A2.75 2.75 0 0 0 8.25 11H3.072A7 7 0 0 1 7.8 3.355Z"/>
</svg>
