<?xml version="1.0" encoding="UTF-8"?>
<svg xmlns="http://www.w3.org/2000/svg" width="20" height="20" viewBox="0 0 20 20">
	<title>
		robot
	</title>
	<path fill="#000" fill-rule="nonzero" d="M10.5 5h6.5049107C18.1067681 5 19 5.89585781 19 6.9973917V14h-7v2h5.0049107C18.1067681 16 19 16.8877296 19 18v2H1v-2c0-1.1045695.8926228-2 1.99508929-2H8v-2H1V6.9973917C1 5.89426273 1.8926228 5 2.99508929 5H9.5V2.91464715C8.91740381 2.70872894 8.5 2.15310941 8.5 1.5 8.5.67157288 9.17157288 0 10 0c.8284271 0 1.5.67157288 1.5 1.5 0 .65310941-.4174038 1.20872894-1 1.41464715V5zm-4 6c.82842712 0 1.5-.6715729 1.5-1.5S7.32842712 8 6.5 8 5 8.6715729 5 9.5 5.67157288 11 6.5 11zm7 0c.8284271 0 1.5-.6715729 1.5-1.5S14.3284271 8 13.5 8 12 8.6715729 12 9.5s.6715729 1.5 1.5 1.5z"/>
</svg>
