<?xml version="1.0" encoding="UTF-8"?>
<svg xmlns="http://www.w3.org/2000/svg" width="20" height="20" viewBox="0 0 20 20">
	<title>
		special pages
	</title>
	<path d="m7 0c-1.1046 0-2 0.89543-2 2h9c1.1046 0 2 0.89543 2 2v12c1.1046 0 2-0.89543 2-2v-12c0-1.1046-0.89543-2-2-2z"/>
	<path d="M13 20H4a2 2 0 01-2-2V5a2 2 0 012-2h9a2 2 0 012 2v13a2 2 0 01-2 2zm-6.5-3.5l.41-1.09L8 15l-1.09-.41-.41-1.09-.41 1.09L5 15l1.09.41.41 1.09zm2.982-.949l.952-2.561 2.53-.964-2.53-.964L9.482 8.5l-.952 2.562-2.53.964 2.53.964.952 2.561zM6 10.5l.547-1.453L8 8.5l-1.453-.547L6 6.5l-.547 1.453L4 8.5l1.453.547L6 10.5z"/>
</svg>
